<svg width="25" height="25" viewBox="0 0 25 25" fill="none" xmlns="http://www.w3.org/2000/svg">
<path d="M0.646946 8.65435C0.952843 8.46746 1.32045 8.40974 1.66891 8.49389C2.01736 8.57804 2.31812 8.79716 2.50501 9.10306C2.6919 9.40896 2.74962 9.77657 2.66547 10.125C2.58132 10.4735 2.3622 10.7742 2.0563 10.9611C1.7504 11.148 1.38279 11.2057 1.03434 11.1216C0.685881 11.0374 0.385127 10.8183 0.198235 10.5124C0.0113436 10.2065 -0.046376 9.8389 0.0377735 9.49045C0.121923 9.142 0.341049 8.84124 0.646946 8.65435ZM9.10306 22.495C9.40896 22.3081 9.77657 22.2504 10.125 22.3345C10.4735 22.4187 10.7742 22.6378 10.9611 22.9437C11.148 23.2496 11.2057 23.6172 11.1216 23.9657C11.0374 24.3141 10.8183 24.6149 10.5124 24.8018C10.2065 24.9887 9.8389 25.0464 9.49045 24.9622C9.14199 24.8781 8.84124 24.659 8.65435 24.3531C8.46746 24.0472 8.40974 23.6795 8.49389 23.3311C8.57804 22.9826 8.79716 22.6819 9.10306 22.495ZM22.9437 14.0389C23.2496 13.852 23.6172 13.7943 23.9657 13.8784C24.3141 13.9626 24.6149 14.1817 24.8018 14.4876C24.9887 14.7935 25.0464 15.1611 24.9622 15.5096C24.8781 15.858 24.6589 16.1588 24.353 16.3457C24.0472 16.5325 23.6795 16.5903 23.3311 16.5061C22.9826 16.422 22.6819 16.2028 22.495 15.8969C22.3081 15.591 22.2504 15.2234 22.3345 14.875C22.4187 14.5265 22.6378 14.2258 22.9437 14.0389ZM14.4876 0.198238C14.7935 0.0113453 15.1611 -0.046374 15.5095 0.037775C15.858 0.121925 16.1588 0.341051 16.3456 0.646948C16.5325 0.952845 16.5903 1.32046 16.5061 1.66891C16.422 2.01736 16.2028 2.31812 15.8969 2.50501C15.591 2.6919 15.2234 2.74962 14.875 2.66547C14.5265 2.58132 14.2258 2.3622 14.0389 2.0563C13.852 1.7504 13.7943 1.38279 13.8784 1.03434C13.9626 0.685884 14.1817 0.385129 14.4876 0.198238Z" fill="url(#paint0_linear_0_857)"/>
<defs>
<linearGradient id="paint0_linear_0_857" x1="5.84742" y1="19.7588" x2="22.0751" y2="9.8763" gradientUnits="userSpaceOnUse">
<stop stop-color="#FF262A"/>
<stop offset="1" stop-color="white"/>
</linearGradient>
</defs>
</svg>
