<svg width="25" height="25" viewBox="0 0 25 25" fill="none" xmlns="http://www.w3.org/2000/svg">
<path d="M0.646944 8.65432C0.952841 8.46743 1.32045 8.40971 1.6689 8.49386C2.01736 8.57801 2.31811 8.79714 2.505 9.10303C2.69189 9.40893 2.74961 9.77654 2.66546 10.125C2.58132 10.4734 2.36219 10.7742 2.05629 10.9611C1.7504 11.148 1.38279 11.2057 1.03433 11.1216C0.68588 11.0374 0.385126 10.8183 0.198235 10.5124C0.0113435 10.2065 -0.0463759 9.83888 0.0377734 9.49042C0.121923 9.14197 0.341048 8.84121 0.646944 8.65432ZM9.10304 22.4949C9.40893 22.308 9.77654 22.2503 10.125 22.3345C10.4735 22.4186 10.7742 22.6377 10.9611 22.9436C11.148 23.2495 11.2057 23.6171 11.1216 23.9656C11.0374 24.3141 10.8183 24.6148 10.5124 24.8017C10.2065 24.9886 9.83888 25.0463 9.49043 24.9622C9.14197 24.878 8.84122 24.6589 8.65433 24.353C8.46744 24.0471 8.40972 23.6795 8.49387 23.331C8.57802 22.9826 8.79714 22.6818 9.10304 22.4949ZM22.9436 14.0388C23.2495 13.8519 23.6172 13.7942 23.9656 13.8784C24.3141 13.9625 24.6148 14.1817 24.8017 14.4875C24.9886 14.7934 25.0463 15.1611 24.9622 15.5095C24.878 15.858 24.6589 16.1587 24.353 16.3456C24.0471 16.5325 23.6795 16.5902 23.331 16.5061C22.9826 16.4219 22.6818 16.2028 22.4949 15.8969C22.308 15.591 22.2503 15.2234 22.3345 14.8749C22.4186 14.5265 22.6378 14.2257 22.9436 14.0388ZM14.4876 0.19823C14.7935 0.0113375 15.1611 -0.0463817 15.5095 0.0377671C15.858 0.121917 16.1587 0.341043 16.3456 0.646939C16.5325 0.952836 16.5902 1.32045 16.5061 1.6689C16.4219 2.01735 16.2028 2.31811 15.8969 2.505C15.591 2.69189 15.2234 2.74961 14.8749 2.66546C14.5265 2.58131 14.2257 2.36218 14.0388 2.05629C13.852 1.75039 13.7942 1.38278 13.8784 1.03433C13.9625 0.685875 14.1817 0.385121 14.4876 0.19823Z" fill="url(#paint0_linear_0_845)"/>
<defs>
<linearGradient id="paint0_linear_0_845" x1="5.8474" y1="19.7587" x2="22.0751" y2="9.87627" gradientUnits="userSpaceOnUse">
<stop stop-color="#FF262A"/>
<stop offset="1" stop-color="white"/>
</linearGradient>
</defs>
</svg>
