<svg width="1440" height="403" viewBox="0 0 1440 403" fill="none" xmlns="http://www.w3.org/2000/svg">
<g clip-path="url(#clip0_79_3590)">
<rect width="1440" height="403" fill="white"/>
<g filter="url(#filter0_f_79_3590)">
<circle cx="1617.79" cy="108" r="294.948" fill="#FFB4B4" fill-opacity="0.3"/>
</g>
<g filter="url(#filter1_f_79_3590)">
<circle cx="84.4722" cy="326.748" r="294.948" fill="url(#paint0_linear_79_3590)" fill-opacity="0.3"/>
</g>
<g filter="url(#filter2_f_79_3590)">
<path d="M821.995 605.506C821.995 768.402 689.942 900.454 527.047 900.454C364.152 900.454 232.099 768.402 232.099 605.506C232.099 442.611 364.152 310.559 527.047 310.559C689.942 310.559 821.995 442.611 821.995 605.506Z" fill="url(#paint1_linear_79_3590)" fill-opacity="0.8"/>
</g>
<g filter="url(#filter3_f_79_3590)">
<circle cx="833.668" cy="765.561" r="294.948" fill="url(#paint2_linear_79_3590)" fill-opacity="0.8"/>
</g>
<circle cx="1748.66" cy="348.23" r="321.855" fill="url(#paint3_linear_79_3590)" fill-opacity="0.2" stroke="url(#paint4_linear_79_3590)" stroke-width="3"/>
<path d="M1724.03 -217.268C1761.75 -227.993 1796.07 -236.515 1826.23 -238.337C1856.36 -240.156 1882.18 -235.274 1903.04 -219.361C1923.92 -203.438 1940.08 -176.29 1950.51 -133.073C1992.19 39.7266 1885.89 213.597 1713.09 255.277C1540.29 296.957 1366.42 190.664 1324.74 17.8644C1314.31 -25.3731 1315.68 -56.7616 1326.05 -80.2239C1336.41 -103.653 1355.86 -119.44 1382.21 -131.238C1408.58 -143.05 1441.7 -150.796 1479.2 -158.213C1516.64 -165.62 1558.42 -172.696 1601.86 -183.174C1645.3 -193.652 1686.36 -206.557 1724.03 -217.268Z" fill="url(#paint5_linear_79_3590)" fill-opacity="0.1" stroke="url(#paint6_linear_79_3590)" stroke-width="3"/>
<path d="M-49.4975 275.24C-60.3228 289.299 -70.4553 301.575 -80.8538 310.297C-91.2344 319.003 -101.749 324.057 -113.352 323.895C-124.972 323.733 -137.982 318.336 -153.332 305.499C-214.676 254.193 -222.814 162.872 -171.509 101.527C-120.203 40.1825 -28.8825 32.044 32.4622 83.3494C47.8279 96.2005 55.6373 107.835 58.1302 118.912C60.6151 129.954 57.8795 140.722 51.5396 152C45.1832 163.307 35.285 174.985 23.6503 187.781C12.0532 200.536 -1.25874 214.39 -14.2442 229.917C-27.2289 245.442 -38.7055 261.225 -49.4975 275.24Z" fill="url(#paint7_linear_79_3590)" fill-opacity="0.1" stroke="url(#paint8_linear_79_3590)" stroke-width="3"/>
</g>
<defs>
<filter id="filter0_f_79_3590" x="808.839" y="-700.948" width="1617.9" height="1617.9" filterUnits="userSpaceOnUse" color-interpolation-filters="sRGB">
<feFlood flood-opacity="0" result="BackgroundImageFix"/>
<feBlend mode="normal" in="SourceGraphic" in2="BackgroundImageFix" result="shape"/>
<feGaussianBlur stdDeviation="257" result="effect1_foregroundBlur_79_3590"/>
</filter>
<filter id="filter1_f_79_3590" x="-724.476" y="-482.2" width="1617.9" height="1617.9" filterUnits="userSpaceOnUse" color-interpolation-filters="sRGB">
<feFlood flood-opacity="0" result="BackgroundImageFix"/>
<feBlend mode="normal" in="SourceGraphic" in2="BackgroundImageFix" result="shape"/>
<feGaussianBlur stdDeviation="257" result="effect1_foregroundBlur_79_3590"/>
</filter>
<filter id="filter2_f_79_3590" x="-281.901" y="-203.441" width="1617.9" height="1617.9" filterUnits="userSpaceOnUse" color-interpolation-filters="sRGB">
<feFlood flood-opacity="0" result="BackgroundImageFix"/>
<feBlend mode="normal" in="SourceGraphic" in2="BackgroundImageFix" result="shape"/>
<feGaussianBlur stdDeviation="257" result="effect1_foregroundBlur_79_3590"/>
</filter>
<filter id="filter3_f_79_3590" x="24.7206" y="-43.3867" width="1617.9" height="1617.9" filterUnits="userSpaceOnUse" color-interpolation-filters="sRGB">
<feFlood flood-opacity="0" result="BackgroundImageFix"/>
<feBlend mode="normal" in="SourceGraphic" in2="BackgroundImageFix" result="shape"/>
<feGaussianBlur stdDeviation="257" result="effect1_foregroundBlur_79_3590"/>
</filter>
<linearGradient id="paint0_linear_79_3590" x1="84.4722" y1="31.7998" x2="84.4722" y2="621.695" gradientUnits="userSpaceOnUse">
<stop stop-color="#FF2125"/>
<stop offset="0.379808" stop-color="white"/>
</linearGradient>
<linearGradient id="paint1_linear_79_3590" x1="275.849" y1="275.624" x2="275.849" y2="865.519" gradientUnits="userSpaceOnUse">
<stop stop-color="#FF797B"/>
<stop offset="1" stop-color="white"/>
</linearGradient>
<linearGradient id="paint2_linear_79_3590" x1="833.668" y1="470.613" x2="833.668" y2="1060.51" gradientUnits="userSpaceOnUse">
<stop stop-color="white"/>
<stop offset="1" stop-color="#FF0004"/>
</linearGradient>
<linearGradient id="paint3_linear_79_3590" x1="1748.66" y1="24.875" x2="1748.66" y2="671.585" gradientUnits="userSpaceOnUse">
<stop stop-color="#7FB7FF"/>
<stop offset="1" stop-color="#75ADF5" stop-opacity="0.3"/>
</linearGradient>
<linearGradient id="paint4_linear_79_3590" x1="1748.66" y1="24.875" x2="1748.66" y2="671.585" gradientUnits="userSpaceOnUse">
<stop stop-color="white"/>
<stop offset="1" stop-color="#EEEEEE"/>
</linearGradient>
<linearGradient id="paint5_linear_79_3590" x1="1561.8" y1="-371.944" x2="1713.44" y2="256.736" gradientUnits="userSpaceOnUse">
<stop stop-color="#FF2125"/>
<stop offset="1" stop-color="#75ADF5" stop-opacity="0.3"/>
</linearGradient>
<linearGradient id="paint6_linear_79_3590" x1="1561.8" y1="-371.944" x2="1713.44" y2="256.736" gradientUnits="userSpaceOnUse">
<stop stop-color="white"/>
<stop offset="1" stop-color="white"/>
</linearGradient>
<linearGradient id="paint7_linear_79_3590" x1="51.7905" y1="288.283" x2="-172.66" y2="100.565" gradientUnits="userSpaceOnUse">
<stop stop-color="#FF2125"/>
<stop offset="1" stop-color="#75ADF5" stop-opacity="0.3"/>
</linearGradient>
<linearGradient id="paint8_linear_79_3590" x1="51.7905" y1="288.283" x2="-172.66" y2="100.565" gradientUnits="userSpaceOnUse">
<stop stop-color="white"/>
<stop offset="1" stop-color="white"/>
</linearGradient>
<clipPath id="clip0_79_3590">
<rect width="1440" height="403" fill="white"/>
</clipPath>
</defs>
</svg>
