<svg width="16" height="16" viewBox="0 0 16 16" fill="none" xmlns="http://www.w3.org/2000/svg">
<path d="M14.6667 14.1667H1.33333C1.05999 14.1667 0.833328 14.3933 0.833328 14.6667C0.833328 14.94 1.05999 15.1667 1.33333 15.1667H14.6667C14.94 15.1667 15.1667 14.94 15.1667 14.6667C15.1667 14.3933 14.94 14.1667 14.6667 14.1667Z" fill="#FF6265"/>
<path d="M11.3333 1.33334H4.66667C2.66667 1.33334 2 2.52668 2 4.00001V14.6667H6V10.6267C6 10.28 6.28 10 6.62667 10H9.38C9.72 10 10.0067 10.28 10.0067 10.6267V14.6667H14.0067V4.00001C14 2.52668 13.3333 1.33334 11.3333 1.33334ZM9.66667 6.16668H8.5V7.33334C8.5 7.60668 8.27333 7.83334 8 7.83334C7.72667 7.83334 7.5 7.60668 7.5 7.33334V6.16668H6.33333C6.06 6.16668 5.83333 5.94001 5.83333 5.66668C5.83333 5.39334 6.06 5.16668 6.33333 5.16668H7.5V4.00001C7.5 3.72668 7.72667 3.50001 8 3.50001C8.27333 3.50001 8.5 3.72668 8.5 4.00001V5.16668H9.66667C9.94 5.16668 10.1667 5.39334 10.1667 5.66668C10.1667 5.94001 9.94 6.16668 9.66667 6.16668Z" fill="#FF6265"/>
</svg>
