<svg width="14" height="14" viewBox="0 0 14 14" fill="none" xmlns="http://www.w3.org/2000/svg">
<path d="M6.70868 1.66666C9.49297 1.66683 11.7497 3.92432 11.7497 6.70865C11.7495 9.49283 9.49286 11.7495 6.70868 11.7497C3.92435 11.7497 1.66686 9.49293 1.66669 6.70865C1.66669 3.92421 3.92424 1.66666 6.70868 1.66666Z" fill="white" stroke="white"/>
<mask id="path-2-inside-1_0_562" fill="white">
<path d="M12.425 12.8333C12.32 12.8333 12.215 12.7925 12.1392 12.7167L11.0542 11.6317C10.8967 11.4742 10.8967 11.2175 11.0542 11.0542C11.2117 10.8967 11.4683 10.8967 11.6317 11.0542L12.7167 12.1392C12.8742 12.2967 12.8742 12.5533 12.7167 12.7167C12.635 12.7925 12.53 12.8333 12.425 12.8333Z"/>
</mask>
<path d="M12.425 12.8333C12.32 12.8333 12.215 12.7925 12.1392 12.7167L11.0542 11.6317C10.8967 11.4742 10.8967 11.2175 11.0542 11.0542C11.2117 10.8967 11.4683 10.8967 11.6317 11.0542L12.7167 12.1392C12.8742 12.2967 12.8742 12.5533 12.7167 12.7167C12.635 12.7925 12.53 12.8333 12.425 12.8333Z" fill="white"/>
<path d="M12.1392 12.7167L11.4321 13.4238L12.1392 12.7167ZM11.0542 11.6317L11.7613 10.9246L11.0542 11.6317ZM11.0542 11.0542L10.3471 10.3471L10.3406 10.3535L10.3343 10.36L11.0542 11.0542ZM11.6317 11.0542L12.3388 10.3471L12.3323 10.3406L12.3258 10.3343L11.6317 11.0542ZM12.7167 12.1392L13.4238 11.4321L12.7167 12.1392ZM12.7167 12.7167L13.3971 13.4495L13.4173 13.4307L13.4365 13.4108L12.7167 12.7167ZM12.425 12.8333V11.8333C12.5712 11.8333 12.7249 11.8881 12.8463 12.0096L12.1392 12.7167L11.4321 13.4238C11.7051 13.6968 12.0688 13.8333 12.425 13.8333V12.8333ZM12.1392 12.7167L12.8463 12.0096L11.7613 10.9246L11.0542 11.6317L10.3471 12.3388L11.4321 13.4238L12.1392 12.7167ZM11.0542 11.6317L11.7613 10.9246C12.0012 11.1645 11.9831 11.5315 11.774 11.7483L11.0542 11.0542L10.3343 10.36C9.81022 10.9035 9.79208 11.7838 10.3471 12.3388L11.0542 11.6317ZM11.0542 11.0542L11.7613 11.7613C11.5213 12.0012 11.1544 11.9831 10.9375 11.774L11.6317 11.0542L12.3258 10.3343C11.7823 9.81022 10.902 9.79208 10.3471 10.3471L11.0542 11.0542ZM11.6317 11.0542L10.9246 11.7613L12.0096 12.8463L12.7167 12.1392L13.4238 11.4321L12.3388 10.3471L11.6317 11.0542ZM12.7167 12.1392L12.0096 12.8463C11.7696 12.6063 11.7877 12.2394 11.9968 12.0225L12.7167 12.7167L13.4365 13.4108C13.9606 12.8673 13.9787 11.987 13.4238 11.4321L12.7167 12.1392ZM12.7167 12.7167L12.0362 11.9839C12.1355 11.8916 12.2722 11.8333 12.425 11.8333V12.8333V13.8333C12.7878 13.8333 13.1345 13.6933 13.3971 13.4495L12.7167 12.7167Z" fill="white" mask="url(#path-2-inside-1_0_562)"/>
</svg>
