<svg width="16" height="16" viewBox="0 0 16 16" fill="none" xmlns="http://www.w3.org/2000/svg">
<path d="M11.1667 2.37334V1.33334C11.1667 1.06001 10.94 0.833344 10.6667 0.833344C10.3933 0.833344 10.1667 1.06001 10.1667 1.33334V2.33334H5.83332V1.33334C5.83332 1.06001 5.60666 0.833344 5.33332 0.833344C5.05999 0.833344 4.83332 1.06001 4.83332 1.33334V2.37334C3.03332 2.54001 2.15999 3.61334 2.02666 5.20668C2.01332 5.40001 2.17332 5.56001 2.35999 5.56001H13.64C13.8333 5.56001 13.9933 5.39334 13.9733 5.20668C13.84 3.61334 12.9667 2.54001 11.1667 2.37334Z" fill="#FF6265"/>
<path d="M12.6667 10C11.1933 10 10 11.1933 10 12.6667C10 13.1667 10.14 13.64 10.3867 14.04C10.8467 14.8133 11.6933 15.3333 12.6667 15.3333C13.64 15.3333 14.4867 14.8133 14.9467 14.04C15.1933 13.64 15.3333 13.1667 15.3333 12.6667C15.3333 11.1933 14.14 10 12.6667 10ZM14.0467 12.38L12.6267 13.6933C12.5333 13.78 12.4067 13.8267 12.2867 13.8267C12.16 13.8267 12.0333 13.78 11.9333 13.68L11.2733 13.02C11.08 12.8267 11.08 12.5067 11.2733 12.3133C11.4667 12.12 11.7867 12.12 11.98 12.3133L12.3 12.6333L13.3667 11.6467C13.5667 11.46 13.8867 11.4733 14.0733 11.6733C14.26 11.8733 14.2467 12.1867 14.0467 12.38Z" fill="#FF6265"/>
<path d="M13.3333 6.56H2.66667C2.3 6.56 2 6.86 2 7.22666V11.3333C2 13.3333 3 14.6667 5.33333 14.6667H8.62C9.08 14.6667 9.4 14.22 9.25333 13.7867C9.12 13.4 9.00667 12.9733 9.00667 12.6667C9.00667 10.6467 10.6533 9 12.6733 9C12.8667 9 13.06 9.01333 13.2467 9.04666C13.6467 9.10666 14.0067 8.79333 14.0067 8.39333V7.23333C14 6.86 13.7 6.56 13.3333 6.56ZM6.14 12.14C6.01333 12.26 5.84 12.3333 5.66667 12.3333C5.49333 12.3333 5.32 12.26 5.19333 12.14C5.07333 12.0133 5 11.84 5 11.6667C5 11.4933 5.07333 11.32 5.19333 11.1933C5.26 11.1333 5.32667 11.0867 5.41333 11.0533C5.66 10.9467 5.95333 11.0067 6.14 11.1933C6.26 11.32 6.33333 11.4933 6.33333 11.6667C6.33333 11.84 6.26 12.0133 6.14 12.14ZM6.14 9.80666C6.10667 9.83333 6.07333 9.86 6.04 9.88666C6 9.91333 5.96 9.93333 5.92 9.94666C5.88 9.96666 5.84 9.98 5.8 9.98666C5.75333 9.99333 5.70667 10 5.66667 10C5.49333 10 5.32 9.92666 5.19333 9.80666C5.07333 9.68 5 9.50666 5 9.33333C5 9.16 5.07333 8.98666 5.19333 8.86C5.34667 8.70666 5.58 8.63333 5.8 8.68C5.84 8.68666 5.88 8.7 5.92 8.72C5.96 8.73333 6 8.75333 6.04 8.78C6.07333 8.80666 6.10667 8.83333 6.14 8.86C6.26 8.98666 6.33333 9.16 6.33333 9.33333C6.33333 9.50666 6.26 9.68 6.14 9.80666ZM8.47333 9.80666C8.34667 9.92666 8.17333 10 8 10C7.82667 10 7.65333 9.92666 7.52667 9.80666C7.40667 9.68 7.33333 9.50666 7.33333 9.33333C7.33333 9.16 7.40667 8.98666 7.52667 8.86C7.78 8.61333 8.22667 8.61333 8.47333 8.86C8.59333 8.98666 8.66667 9.16 8.66667 9.33333C8.66667 9.50666 8.59333 9.68 8.47333 9.80666Z" fill="#FF6265"/>
</svg>
